HIERARCHY
ROOT ui
{
	 OFFSET 0 0 0
	 CHANNELS 3 XPosition YPosition Z Position
	 EndSite
	 {
	 OFFSET 0 -1 0
	 }
}
ROOT li
{
	 OFFSET 0 0 0
	 CHANNELS 3 XPosition YPosition Z Position
	 EndSite
	 {
	 OFFSET 0 -1 0
	 }
}
ROOT ul
{
	 OFFSET 0 0 0
	 CHANNELS 3 XPosition YPosition Z Position
	 EndSite
	 {
	 OFFSET 0 -1 0
	 }
}
ROOT ll
{
	 OFFSET 0 0 0
	 CHANNELS 3 XPosition YPosition Z Position
	 EndSite
	 {
	 OFFSET 0 -1 0
	 }
}
ROOT tt
{
	 OFFSET 0 0 0
	 CHANNELS 3 XPosition YPosition Z Position
	 EndSite
	 {
	 OFFSET 0 -1 0
	 }
}
ROOT tb
{
	 OFFSET 0 0 0
	 CHANNELS 3 XPosition YPosition Z Position
	 EndSite
	 {
	 OFFSET 0 -1 0
	 }
}
ROOT td
{
	 OFFSET 0 0 0
	 CHANNELS 3 XPosition YPosition Z Position
	 EndSite
	 {
	 OFFSET 0 -1 0
	 }
}
ROOT v
{
	 OFFSET 0 0 0
	 CHANNELS 3 XPosition YPosition Z Position
	 EndSite
	 {
	 OFFSET 0 -1 0
	 }
}
ROOT bn
{
	 OFFSET 0 0 0
	 CHANNELS 3 XPosition YPosition Z Position
	 EndSite
	 {
	 OFFSET 0 -1 0
	 }
}
MOTION
Frames: 13
Frame Time: 0.002
9.090499877929687E-4	-0.0017921730279922485	0		0.5206655883789062	-2.56311572265625	0		-0.9379120483398438	-0.06569795989990235	0		-0.2594247741699219	-2.819911376953125	0		1.5630125732421876	-1.0173302001953124	0		2.809140380859375	-0.1680025177001953	0		4.038369873046875	0.1824901123046875	0		5.9754130859375	0.5025776977539063	0		-0.40400592041015626	5.8444033203125	0		
-0.0024508700370788573	-0.005631202220916748	0		0.5592161254882813	-2.57445166015625	0		-0.9431773071289062	-0.06151249313354492	0		-0.24913276672363283	-2.85291357421875	0		1.5748629150390625	-1.0033502197265625	0		2.797123779296875	-0.14274136352539063	0		4.034329345703125	0.20565496826171875	0		5.97814404296875	0.5234555053710938	0		-0.38919281005859374	5.85435107421875	0		
0.005295437812805176	4.146200120449066E-4	0		0.5369706420898438	-2.56705224609375	0		-0.9373245849609375	-0.04644156265258789	0		-0.2565927734375	-2.863688720703125	0		1.5785599365234375	-1.0012603149414063	0		2.788036376953125	-0.12250169372558593	0		4.0403720703125	0.2367137451171875	0		5.99063232421875	0.4990894775390625	0		-0.3894920654296875	5.85549267578125	0		
0.0028948869705200195	-0.004403253078460693	0		0.5786173706054687	-2.567392822265625	0		-0.95259423828125	-0.04010319519042969	0		-0.2681207885742187	-2.8783984375	0		1.6293297119140624	-0.9917115478515625	0		2.789013916015625	-0.09536682891845703	0		4.01632861328125	0.2621401672363281	0		5.98691552734375	0.5184583129882813	0		-0.35575677490234375	5.86024951171875	0		
0.003517112970352173	-0.005237222194671631	0		0.5272894287109375	-2.56261474609375	0		-0.9648529663085937	-0.030779182434082033	0		-0.2487393035888672	-2.89845458984375	0		1.740033935546875	-0.9858560791015625	0		2.78777783203125	-0.08419208526611328	0		4.011177490234375	0.2803555603027344	0		5.98247705078125	0.539594482421875	0		-0.35608111572265627	5.86142919921875	0		
-0.005773394107818603	0.004069294929504395	0		0.5797985229492187	-2.569045166015625	0		-0.9642627563476562	-0.03158339309692383	0		-0.25046568298339844	-2.924238525390625	0		1.6107921142578125	-0.9711414184570313	0		2.76066552734375	-0.059693557739257816	0		4.011077880859375	0.3055254821777344	0		5.97560595703125	0.5054531860351562	0		-0.3715538635253906	5.851810546875	0		
0.0046581850051879885	-0.006833114147186279	0		0.5393147583007812	-2.570349609375	0		-0.9715458374023438	-0.018264631271362304	0		-0.2172663116455078	-2.952409912109375	0		1.730372314453125	-0.9693526611328125	0		2.77325048828125	-0.0576480941772461	0		4.013987060546875	0.33467510986328125	0		5.9796416015625	0.5194586791992187	0		-0.42395303344726565	5.85065771484375	0		
0.020231151580810548	-0.0017655049562454225	0		0.571817138671875	-2.568490478515625	0		-0.9589135131835937	-0.008148917198181152	0		-0.2548233489990234	-2.9547099609375	0		1.730028564453125	-0.9561185302734375	0		2.77321533203125	-0.019429460525512695	0		4.0177197265625	0.35283135986328124	0		5.99078369140625	0.5350081176757813	0		-0.37617462158203124	5.8663505859375	0		
-0.07113751983642579	0.013607508659362793	0		0.560304931640625	-2.56207666015625	0		-0.978429931640625	-0.00561416482925415	0		-0.11668523406982421	-2.9780625	0		1.717638427734375	-0.941712646484375	0		2.73674755859375	-0.01275527286529541	0		4.008481689453125	0.37816265869140625	0		5.98031982421875	0.5166002807617187	0		-0.37178485107421877	5.852591796875	0		
-0.0038885569572448733	0.0011331919431686402	0		0.5865997924804688	-2.566076171875	0		-0.9899139404296875	0.0048685789108276365	0		-0.24447125244140624	-2.987215087890625	0		1.7090400390625	-0.9393197631835938	0		2.734405517578125	0.00954414176940918	0		3.99135107421875	0.4176135864257812	0		5.99120849609375	0.4976065368652344	0		-0.3591278991699219	5.8647763671875	0		
0.006313002109527588	-0.009621639251708985	0		0.5858360595703125	-2.568714599609375	0		-0.9855568237304687	0.00720798921585083	0		-0.1275515899658203	-3.016239013671875	0		1.696518798828125	-0.9248430786132813	0		2.741845947265625	0.018758092880249023	0		3.995741943359375	0.42183355712890624	0		5.9823798828125	0.539770751953125	0		-0.35965399169921874	5.86516064453125	0		
-0.00330474591255188	-9.369400143623353E-5	0		0.5631124877929687	-2.562047119140625	0		-0.9771992797851563	0.014548380851745606	0		-0.22628207397460937	-3.008643310546875	0		1.7028387451171876	-0.918552978515625	0		2.72648046875	0.04928052139282227	0		3.999242919921875	0.44009503173828124	0		5.98744970703125	0.5158273315429688	0		-0.39328665161132814	5.859986328125	0		
0.002986311912536621	0.006292436122894287	0		0.60112890625	-2.572061279296875	0		-0.9648602905273438	0.02489296340942383	0		-0.1125968017578125	-3.04554150390625	0		1.7081009521484376	-0.9122085571289062	0		2.702679443359375	0.04794085693359375	0		3.998608154296875	0.451438720703125	0		5.98271826171875	0.53719580078125	0		-0.3598251037597656	5.8650615234375	0		
